<svg id="svg5401" xmlns="http://www.w3.org/2000/svg" viewBox="0 0 512 512"><defs><style>.cls-1{fill:#fff;}</style></defs><path class="cls-1" d="M256,317.88a155.29,155.29,0,0,0-155,146,8.8,8.8,0,0,0,8.32,9.24h.48a8.8,8.8,0,0,0,8.78-8.31,137.67,137.67,0,0,1,274.84,0,8.8,8.8,0,0,0,8.78,8.31h0a8.79,8.79,0,0,0,8.81-8.77c0-.16,0-.32,0-.48A155.29,155.29,0,0,0,256,317.88Z"/><path class="cls-1" d="M256.78,129.5a90.84,90.84,0,1,0,90.05,91.62h0a90.83,90.83,0,0,0-90-91.61Zm-1.41,164.89A74.06,74.06,0,1,1,330.06,221v0A74.06,74.06,0,0,1,255.37,294.39Z"/><path class="cls-1" d="M219.09,189.35h3.13v16.23c0,6.45-3.16,8.43-7.34,8.43a10.25,10.25,0,0,1-3.35-.58l.47-2.56a7.28,7.28,0,0,0,2.63.47c2.81,0,4.46-1.26,4.46-6Z"/><path class="cls-1" d="M248.18,201.23c0,8.35-5.08,12.78-11.27,12.78C230.5,214,226,209,226,201.7,226,194,230.79,189,237.27,189S248.18,194,248.18,201.23Zm-18.83.39c0,5.19,2.81,9.83,7.74,9.83s7.78-4.57,7.78-10.08c0-4.82-2.52-9.86-7.74-9.86S229.35,196.3,229.35,201.62Z"/><path class="cls-1" d="M255.38,189.35V199.5h11.73V189.35h3.17v24.26h-3.17V202.23H255.38v11.38h-3.13V189.35Z"/><path class="cls-1" d="M275.72,213.61V189.35h3.42l7.77,12.27a68.5,68.5,0,0,1,4.36,7.89l.07,0c-.29-3.24-.36-6.19-.36-10V189.35h2.95v24.26h-3.16l-7.71-12.31a76.38,76.38,0,0,1-4.53-8.1l-.11,0c.18,3.06.25,6,.25,10v10.37Z"/><path class="cls-1" d="M223.52,232.87a46.08,46.08,0,0,1,6.66-.5c4.5,0,7.7,1,9.83,3s3.42,4.79,3.42,8.71-1.23,7.2-3.5,9.43-6,3.5-10.72,3.5a50.51,50.51,0,0,1-5.69-.29Zm3.13,21.46a20.3,20.3,0,0,0,3.17.18c6.69,0,10.33-3.75,10.33-10.3,0-5.72-3.2-9.36-9.83-9.36a17.71,17.71,0,0,0-3.67.33Z"/><path class="cls-1" d="M268.23,244.43c0,8.35-5.08,12.78-11.27,12.78-6.4,0-10.9-5-10.9-12.31,0-7.71,4.78-12.75,11.26-12.75C264,232.15,268.23,237.23,268.23,244.43Zm-18.83.39c0,5.19,2.81,9.83,7.74,9.83s7.78-4.57,7.78-10.08c0-4.82-2.52-9.86-7.74-9.86S249.4,239.5,249.4,244.82Z"/><path class="cls-1" d="M284.86,245.44h-9.43v8.74h10.51v2.63H272.3V232.55h13.1v2.63h-10v7.66h9.43Z"/></svg>